<svg width="85" height="96" viewBox="0 0 85 96" fill="none" xmlns="http://www.w3.org/2000/svg">
<path d="M52.8898 20.4449C52.8898 26.2135 48.2135 30.8898 42.4449 30.8898C36.6763 30.8898 32 26.2135 32 20.4449C32 14.6763 36.6763 10 42.4449 10C48.2135 10 52.8898 14.6763 52.8898 20.4449ZM33.5667 20.4449C33.5667 25.3482 37.5416 29.3231 42.4449 29.3231C47.3482 29.3231 51.3231 25.3482 51.3231 20.4449C51.3231 15.5416 47.3482 11.5667 42.4449 11.5667C37.5416 11.5667 33.5667 15.5416 33.5667 20.4449Z" fill="white"/>
<path d="M22 46C22 41.7565 24.1598 37.6869 28.0043 34.6863C31.8488 31.6857 37.0631 30 42.5 30C47.9369 30 53.1512 31.6857 56.9957 34.6863C60.8402 37.6869 63 41.7565 63 46L60.95 46C60.95 42.1809 59.0062 38.5182 55.5461 35.8177C52.0861 33.1171 47.3932 31.6 42.5 31.6C37.6068 31.6 32.9139 33.1171 29.4539 35.8177C25.9938 38.5182 24.05 42.1809 24.05 46L22 46Z" fill="white"/>
<path d="M24 45L61 45" stroke="white" stroke-width="2" stroke-linecap="round"/>
<path d="M18.0084 56.3813H66.9915" stroke="white" stroke-width="2" stroke-linecap="round"/>
<path d="M18.0084 67.9068H66.9915" stroke="white" stroke-width="2" stroke-linecap="round"/>
<path d="M18.0084 79.4322H66.9915" stroke="white" stroke-width="2" stroke-linecap="round"/>
<rect x="1" y="1.19492" width="83" height="93.8051" rx="10" stroke="white" stroke-width="2"/>
</svg>
