<svg width="86" height="96" viewBox="0 0 86 96" fill="none" xmlns="http://www.w3.org/2000/svg">
<rect x="7.60437" y="1" width="77.3956" height="94" rx="10" stroke="white" stroke-width="2"/>
<path d="M57.0171 21.4449C57.0171 27.2135 52.3262 31.8898 46.5397 31.8898C40.7532 31.8898 36.0623 27.2135 36.0623 21.4449C36.0623 15.6763 40.7532 11 46.5397 11C52.3262 11 57.0171 15.6763 57.0171 21.4449ZM37.6339 21.4449C37.6339 26.3482 41.6211 30.3231 46.5397 30.3231C51.4582 30.3231 55.4455 26.3482 55.4455 21.4449C55.4455 16.5416 51.4582 12.5667 46.5397 12.5667C41.6211 12.5667 37.6339 16.5416 37.6339 21.4449Z" fill="white"/>
<path d="M30.0436 66C30.0436 69.866 26.8998 73 23.0218 73C19.1438 73 16 69.866 16 66C16 62.134 19.1438 59 23.0218 59C26.8998 59 30.0436 62.134 30.0436 66ZM17.0533 66C17.0533 69.2861 19.7255 71.95 23.0218 71.95C26.3181 71.95 28.9903 69.2861 28.9903 66C28.9903 62.7139 26.3181 60.05 23.0218 60.05C19.7255 60.05 17.0533 62.7139 17.0533 66Z" fill="white"/>
<path d="M53.1152 66C53.1152 69.866 49.9715 73 46.0934 73C42.2154 73 39.0717 69.866 39.0717 66C39.0717 62.134 42.2154 59 46.0934 59C49.9715 59 53.1152 62.134 53.1152 66ZM40.1249 66C40.1249 69.2861 42.7971 71.95 46.0934 71.95C49.3898 71.95 52.062 69.2861 52.062 66C52.062 62.7139 49.3898 60.05 46.0934 60.05C42.7971 60.05 40.1249 62.7139 40.1249 66Z" fill="white"/>
<path d="M76.1868 66C76.1868 69.866 73.043 73 69.165 73C65.287 73 62.1432 69.866 62.1432 66C62.1432 62.134 65.287 59 69.165 59C73.043 59 76.1868 62.134 76.1868 66ZM63.1965 66C63.1965 69.2861 65.8687 71.95 69.165 71.95C72.4613 71.95 75.1335 69.2861 75.1335 66C75.1335 62.7139 72.4613 60.05 69.165 60.05C65.8687 60.05 63.1965 62.7139 63.1965 66Z" fill="white"/>
<path d="M26.031 47C26.031 42.7565 28.1975 38.6869 32.054 35.6863C35.9105 32.6857 41.141 31 46.5948 31C52.0487 31 57.2792 32.6857 61.1356 35.6863C64.9921 38.6869 67.1586 42.7565 67.1586 47L65.1022 47C65.1022 43.1809 63.1524 39.5182 59.6815 36.8177C56.2107 34.1171 51.5033 32.6 46.5948 32.6C41.6863 32.6 36.9789 34.1171 33.5081 36.8177C30.0373 39.5182 28.0874 43.1809 28.0874 47L26.031 47Z" fill="white"/>
<path d="M28.0374 46L65.1525 46" stroke="white" stroke-width="2" stroke-linecap="round"/>
<path d="M1 18C5.56654 18 9.75254 18 11.2747 18" stroke="white" stroke-width="2" stroke-linecap="round"/>
<path d="M1 37C5.56654 37 9.75254 37 11.2747 37" stroke="white" stroke-width="2" stroke-linecap="round"/>
<path d="M1 56C5.56654 56 9.75254 56 11.2747 56" stroke="white" stroke-width="2" stroke-linecap="round"/>
<path d="M1 75C5.56654 75 9.75254 75 11.2747 75" stroke="white" stroke-width="2" stroke-linecap="round"/>
</svg>
