<svg width="85" height="96" viewBox="0 0 85 96" fill="none" xmlns="http://www.w3.org/2000/svg">
<rect x="1" y="1" width="83" height="94" rx="10" stroke="white" stroke-width="2"/>
<path d="M8.70711 47.2929L8 46.5858L6.58579 48L7.29289 48.7071L8.70711 47.2929ZM18.2625 59.6767C18.653 60.0672 19.2862 60.0672 19.6767 59.6767C20.0672 59.2862 20.0672 58.653 19.6767 58.2625L18.2625 59.6767ZM7.29289 48.7071L18.2625 59.6767L19.6767 58.2625L8.70711 47.2929L7.29289 48.7071Z" fill="white"/>
<path d="M19.6767 37.7071C20.0672 37.3166 20.0672 36.6834 19.6767 36.2929C19.2862 35.9024 18.653 35.9024 18.2625 36.2929L19.6767 37.7071ZM7.29291 47.2625L6.58581 47.9696L8.00002 49.3838L8.70713 48.6767L7.29291 47.2625ZM18.2625 36.2929L7.29291 47.2625L8.70713 48.6767L19.6767 37.7071L18.2625 36.2929Z" fill="white"/>
<path d="M75.2625 48.6767L75.9696 49.3838L77.3838 47.9696L76.6767 47.2625L75.2625 48.6767ZM65.7071 36.2929C65.3166 35.9024 64.6834 35.9024 64.2929 36.2929C63.9024 36.6834 63.9024 37.3166 64.2929 37.7071L65.7071 36.2929ZM76.6767 47.2625L65.7071 36.2929L64.2929 37.7071L75.2625 48.6767L76.6767 47.2625Z" fill="white"/>
<path d="M64.2929 58.2625C63.9024 58.653 63.9024 59.2862 64.2929 59.6767C64.6834 60.0672 65.3166 60.0672 65.7071 59.6767L64.2929 58.2625ZM76.6767 48.7071L77.3838 48L75.9696 46.5858L75.2625 47.2929L76.6767 48.7071ZM65.7071 59.6767L76.6767 48.7071L75.2625 47.2929L64.2929 58.2625L65.7071 59.6767Z" fill="white"/>
<path d="M33.5 60.5L51.5 35" stroke="white" stroke-width="2" stroke-linecap="round"/>
</svg>
